# xmcd
#
# Track frame offsets:
#	150
#	19970
#	35100
#	45100
#	65380
#	82050
#	94025
#	108595
#	121440
#	136950
#	148900
#	164555
#	181855
#	197590
#	212050
#	226240
#	241840
#	263080
#	280380
#	296530
#	311575
#
# Disc length: 4390 seconds
#
# Revision: 0
# Processed by: cddbd v1.5.2PL0 Copyright (c) Steve Scherf et al.
# Submitted via: dBpowerAMP V4.0
#
DISCID=35112415
DTITLE=1 - 1
DYEAR=2013
DGENRE=Acapella
TTITLE0=Wszystko ch³pcy jest O.K.
TTITLE1=Kalina, Kalina
TTITLE2=Wisniowy sad
TTITLE3=Graj cyganei graj
TTITLE4=Ciao italia
TTITLE5=Lay lay lay
TTITLE6=Arivederci mon amour
TTITLE7=Wakacyjna przygoda
TTITLE8=Serduszka jeszcze raz
TTITLE9=Que sera, sera
TTITLE10=Serca ma³e dwa
TTITLE11=Polskie kwiaty
TTITLE12=Cyganeria
TTITLE13=Siedem czerwonych róz
TTITLE14=Ró¿e czerwone s¹
TTITLE15=Bia³a mewa
TTITLE16=Wszyscy Polacy
TTITLE17=Wirginia
TTITLE18=Ch³pcy radarowcy
TTITLE19=Jak siê masz kochanie
TTITLE20=Moja muzyka
EXTD=sa
EXTT0=
EXTT1=
EXTT2=
EXTT3=
EXTT4=
EXTT5=
EXTT6=
EXTT7=
EXTT8=
EXTT9=
EXTT10=
EXTT11=
EXTT12=
EXTT13=
EXTT14=
EXTT15=
EXTT16=
EXTT17=
EXTT18=
EXTT19=
EXTT20=
PLAYORDER=
